 http://i1306.photobucket.com/albums/s570/zyx55e/44_zpsc46e809d.gif 
http://desibbrg.org/images/38937966743359904891.png 
http://desibbrg.org/images/50530194665790346297.png 
http://desibbrg.org/images/03379335841167495485.png 
http://desibbrg.org/images/39831182448977077735.png 
http://desibbrg.org/images/72598576114507973919.png
 
http://i1306.photobucket.com/albums/s570/zyx55e/oie_11162011MOJeDGQI_zpsc25b2b81.gif
Cast n Crew - 
Directed by Vivek Lagu 
Video Director by Mangesh Kadam.
Artist :- Atul Parchure, Vivek Lagu, Atisha Naik, Radhika Ingle, Hrudaynath Rane, Raja Bapat, Milind Nimbalkar and Savita Maalpekar

Writer :- Vivek Lagu

Media Info - 
General
Complete name                  : Chal Atap Laukar - Drama x264 MP3 [TMB].avi
Format                         : AVI
Format/Info                    : Audio Video Interleave
File size                      : 509 MiB
Duration                       : 1h 46mn
Overall bit rate               : 669 Kbps
Writing application            : Lavf54.63.104

Video
Format                         : AVC
Format/Info                    : Advanced Video Codec
Format profile                 : High@L3.0
Format settings, CABAC         : Yes
Format settings, ReFrames      : 1 frame
Codec ID                       : H264
Duration                       : 1h 46mn
Bit rate                       : 402 Kbps
Width                          : 640 pixels
Height                         : 480 pixels
Display aspect ratio           : 4:3
Frame rate mode                : Variable
Frame rate                     : 25.000 fps
Color space                    : YUV
Chroma subsampling             : 4:2:0
Bit depth                      : 8 bits
Scan type                      : Progressive
Bits/(Pixel*Frame)             : 0.052
Stream size                    : 305 MiB (60%)
Writing library                : x264 core 129

Audio
Format                         : MPEG Audio
Format version                 : Version 1
Format profile                 : Layer 3
Mode                           : Joint stereo
Mode extension                 : MS Stereo
Codec ID                       : 55
Codec ID/Hint                  : MP3
Duration                       : 1h 46mn
Bit rate mode                  : Constant
Bit rate                       : 256 Kbps
Channel(s)                     : 2 channels
Sampling rate                  : 44.1 KHz
Compression mode               : Lossy
Stream size                    : 195 MiB (38%)
Alignment                      : Aligned on interleaves
Interleave, duration           : 26 ms (0.65 video frame)

Ripper : Manojvb

Seeding 24x7... Extreme Seeding...


Enjoy!
